# xmcd
#
# Track frame offsets:
#	150
#	13189
#	27024
#	40806
#	56988
#	75455
#	86359
#	97046
#	110103
#	128625
#	144527
#	156999
#
# Disc length: 2368 seconds
#
# Revision: 0
# Processed by: cddbd v1.4PL0 Copyright (c) Steve Scherf et al.
# Submitted via: EasyCDDAExtractor 4.5.0.2
#
DISCID=9a093e0c
DTITLE=Brandon Sandefur - s/t
DYEAR=1995
DGENRE=Country
TTITLE0=Half An Angel
TTITLE1=Why
TTITLE2=The Roosters Back
TTITLE3=The Stranger
TTITLE4=Star In The Rodeo
TTITLE5=I Think I'm Over Gettin' Over You
TTITLE6=Somebody's Watchin' 
TTITLE7=My Nose Knows
TTITLE8=Your Memory Will See Me Through
TTITLE9=My Way From San Antone
TTITLE10=Hell Just Froze
TTITLE11=There's No Love Left
EXTD=
EXTT0=
EXTT1=
EXTT2=
EXTT3=
EXTT4=
EXTT5=
EXTT6=
EXTT7=
EXTT8=
EXTT9=
EXTT10=
EXTT11=
PLAYORDER=
